<?xml version="1.0" standalone="no"?>
<!DOCTYPE svg PUBLIC "-//W3C//DTD SVG 20010904//EN"
 "http://www.w3.org/TR/2001/REC-SVG-20010904/DTD/svg10.dtd">
<svg version="1.0" xmlns="http://www.w3.org/2000/svg"
 width="500.000000pt" height="500.000000pt" viewBox="0 0 500.000000 500.000000"
 preserveAspectRatio="xMidYMid meet">

<g transform="translate(0.000000,500.000000) scale(0.100000,-0.100000)"
fill="#000000" stroke="none">
<path d="M1340 3161 c0 -19 11 -20 243 -23 283 -4 304 -2 318 23 9 18 1 19
-276 19 -274 0 -285 -1 -285 -19z"/>
<path d="M3080 3172 c0 -5 8 -15 18 -23 14 -12 59 -14 250 -11 221 3 232 5
232 23 0 18 -10 19 -250 19 -137 0 -250 -4 -250 -8z"/>
<path d="M3825 2898 c-49 -13 -55 -30 -55 -162 l0 -121 57 -114 58 -113 3
-137 c4 -116 2 -139 -12 -150 -9 -7 -23 -11 -31 -7 -13 4 -15 32 -15 166 l0
160 -30 0 -30 0 0 -161 c0 -89 4 -169 10 -179 12 -23 67 -40 104 -33 15 3 36
17 47 31 19 24 20 38 17 182 -3 170 5 140 -85 312 -25 47 -28 66 -31 165 -3
96 -1 114 12 119 37 14 46 -13 46 -137 l0 -119 30 0 30 0 0 128 c0 121 -1 130
-22 149 -28 25 -63 32 -103 21z"/>
<path d="M1060 2481 l0 -421 66 0 c62 0 65 1 62 23 -2 16 -11 23 -30 25 l-28
3 -2 392 -3 392 -32 3 -33 3 0 -420z"/>
<path d="M1330 2480 l0 -420 30 0 30 0 0 420 0 420 -30 0 -30 0 0 -420z"/>
<path d="M1550 2880 c-19 -19 -20 -33 -20 -399 0 -362 1 -379 20 -403 11 -14
31 -28 46 -31 37 -7 92 10 104 33 6 11 10 102 10 214 l0 196 -32 0 -33 0 3
-195 c3 -172 2 -196 -12 -201 -9 -3 -23 -1 -31 6 -13 11 -15 64 -13 384 l3
371 25 0 25 0 3 -147 3 -148 28 0 c27 0 28 2 34 68 4 37 7 102 7 145 0 69 -3
81 -25 102 -32 33 -114 36 -145 5z"/>
<path d="M1849 2658 c-2 -134 -2 -323 -1 -420 l4 -178 29 0 29 0 0 200 0 200
30 0 30 0 0 -200 0 -200 36 0 37 0 -7 53 c-3 28 -6 217 -6 420 l0 367 -30 0
-30 0 0 -195 0 -195 -30 0 -30 0 0 195 0 195 -29 0 -29 0 -3 -242z"/>
<path d="M2150 2875 c0 -21 5 -25 30 -25 l30 0 0 -395 0 -395 30 0 30 0 0 395
0 395 30 0 c25 0 30 4 30 25 0 25 -1 25 -90 25 -89 0 -90 0 -90 -25z"/>
<path d="M2620 2883 c0 -10 12 -110 26 -223 15 -124 28 -283 31 -402 l6 -198
28 0 29 0 0 138 c0 87 11 232 30 397 37 324 37 305 1 305 -28 0 -28 -1 -34
-72 -4 -40 -10 -127 -14 -193 -8 -140 -17 -123 -27 50 -4 66 -10 141 -13 168
-5 44 -8 47 -34 47 -21 0 -29 -5 -29 -17z"/>
<path d="M2920 2480 l0 -420 70 0 c68 0 70 1 70 25 0 22 -4 25 -38 25 l-38 0
-1 185 -2 185 35 0 c31 0 35 3 32 23 -2 17 -11 23 -35 25 l-33 3 0 160 0 159
40 0 c36 0 40 3 40 25 0 24 -2 25 -70 25 l-70 0 0 -420z"/>
<path d="M3206 2868 c-3 -18 -8 -94 -11 -168 -11 -262 -25 -536 -30 -587 l-5
-53 35 0 35 0 0 100 0 100 25 0 c24 0 25 -3 25 -54 0 -29 3 -74 6 -100 6 -43
9 -46 36 -46 l30 0 -6 68 c-3 37 -13 202 -21 367 -8 165 -18 324 -21 353 l-5
52 -44 0 c-42 0 -44 -2 -49 -32z m68 -405 l6 -153 -26 0 c-24 0 -25 2 -20 38
3 20 8 132 13 247 6 195 7 203 14 115 4 -52 10 -164 13 -247z"/>
<path d="M3460 2481 l0 -421 35 0 35 0 0 210 c0 196 1 210 18 210 39 0 42 -17
42 -222 l0 -198 30 0 30 0 0 198 c0 158 -3 202 -15 219 -13 18 -13 22 0 33 12
10 15 44 15 175 0 204 -1 205 -113 213 l-77 5 0 -422z m128 210 c3 -160 -2
-181 -39 -181 -18 0 -19 10 -19 171 l0 170 28 -3 27 -3 3 -154z"/>
<path d="M1340 1831 c0 -20 10 -20 378 -23 207 -2 385 -1 395 1 10 2 17 11 15
20 -3 14 -43 16 -396 19 -384 2 -392 2 -392 -17z"/>
<path d="M2826 1834 c-9 -22 1 -34 30 -34 19 0 24 5 24 25 0 20 -5 25 -24 25
-13 0 -27 -7 -30 -16z"/>
<path d="M2920 1830 c0 -20 7 -20 330 -20 323 0 330 0 330 20 0 20 -7 20 -330
20 -323 0 -330 0 -330 -20z"/>
</g>
</svg>
